<?xml version="1.0" ?><svg id="Layer_1" style="enable-background:new 0 0 100 100;" version="1.1" viewBox="0 0 100 100" xml:space="preserve" xmlns="http://www.w3.org/2000/svg" xmlns:xlink="http://www.w3.org/1999/xlink"><style type="text/css">
	.st0{fill:#FFFFFF;}
	.st1{fill:#B7B7B7;}
	.st2{fill:#FF9500;}
	.st3{fill:#1BADF8;}
	.st4{fill:#63DA38;}
</style><g><path class="st0" d="M80.4,67.3c-3.1,0-5.6,2.5-5.6,5.6c0,3.1,2.5,5.6,5.6,5.6c3.1,0,5.6-2.5,5.6-5.6C86,69.8,83.5,67.3,80.4,67.3z    M80.4,77.8c-2.7,0-4.9-2.2-4.9-4.9c0-2.7,2.2-4.9,4.9-4.9c2.7,0,4.9,2.2,4.9,4.9C85.3,75.6,83.1,77.8,80.4,77.8z"/><path class="st0" d="M80.4,24.5c-3.1,0-5.6,2.5-5.6,5.6c0,3.1,2.5,5.6,5.6,5.6c3.1,0,5.6-2.5,5.6-5.6C86,27,83.5,24.5,80.4,24.5z    M80.4,35c-2.7,0-4.9-2.2-4.9-4.9c0-2.7,2.2-4.9,4.9-4.9c2.7,0,4.9,2.2,4.9,4.9C85.3,32.8,83.1,35,80.4,35z"/><path class="st0" d="M80.4,45.9c-3.1,0-5.6,2.5-5.6,5.6s2.5,5.6,5.6,5.6c3.1,0,5.6-2.5,5.6-5.6S83.5,45.9,80.4,45.9z M80.4,56.4   c-2.7,0-4.9-2.2-4.9-4.9s2.2-4.9,4.9-4.9c2.7,0,4.9,2.2,4.9,4.9S83.1,56.4,80.4,56.4z"/><path class="st0" d="M93.5,18c-1.9-5.3-6.1-9.5-11.4-11.4C77.2,5,72.7,5,63.6,5H36.4c-9,0-13.6,0-18.4,1.5C13,8.3,9,12.1,7,17h59.1   h0.4v0.8h-0.4H6.6c0,0,0,0.1,0,0.1C5,22.8,5,27.3,5,36.4v3.1h61.1h0.4v0.7h-0.4H5v20.3h61.1h0.4v0.7h-0.4H5v2.4   c0,9,0,13.6,1.5,18.4c0.1,0.3,0.3,0.7,0.4,1h59.2h0.4v0.8h-0.4H7.3c2.1,4.4,6,7.9,10.6,9.6C22.8,95,27.3,95,36.4,95h27.2   c9,0,13.6,0,18.4-1.5c5.3-1.9,9.5-6.1,11.4-11.4C95,77.2,95,72.7,95,63.6V36.4C95,27.4,95,22.8,93.5,18z M80.4,79.3   c-3.5,0-6.4-2.9-6.4-6.4s2.9-6.4,6.4-6.4s6.4,2.9,6.4,6.4S83.9,79.3,80.4,79.3z M80.4,57.9c-3.5,0-6.4-2.9-6.4-6.4s2.9-6.4,6.4-6.4   s6.4,2.9,6.4,6.4S83.9,57.9,80.4,57.9z M80.4,36.5c-3.5,0-6.4-2.9-6.4-6.4s2.9-6.4,6.4-6.4s6.4,2.9,6.4,6.4S83.9,36.5,80.4,36.5z"/><path class="st1" d="M66.5,83.8V83h-0.4H6.9c0.1,0.3,0.2,0.5,0.3,0.8h58.8H66.5z"/><polygon class="st1" points="66.5,61.2 66.5,60.5 66.1,60.5 5,60.5 5,61.2 66.1,61.2  "/><polygon class="st1" points="66.5,40.2 66.5,39.5 66.1,39.5 5,39.5 5,40.2 66.1,40.2  "/><path class="st1" d="M66.5,17.8V17h-0.4H7c-0.1,0.3-0.2,0.5-0.3,0.8h59.5H66.5z"/><ellipse class="st2" cx="80.4" cy="30.1" rx="4.9" ry="4.9" transform="matrix(0.7071 -0.7071 0.7071 0.7071 2.2647 65.6675)"/><path class="st2" d="M80.4,23.7c-3.5,0-6.4,2.9-6.4,6.4s2.9,6.4,6.4,6.4s6.4-2.9,6.4-6.4S83.9,23.7,80.4,23.7z M80.4,35.7   c-3.1,0-5.6-2.5-5.6-5.6c0-3.1,2.5-5.6,5.6-5.6c3.1,0,5.6,2.5,5.6,5.6C86,33.2,83.5,35.7,80.4,35.7z"/><ellipse class="st3" cx="80.4" cy="51.5" rx="4.9" ry="4.9" transform="matrix(0.3827 -0.9239 0.9239 0.3827 2.0525 106.0718)"/><path class="st3" d="M80.4,45.1c-3.5,0-6.4,2.9-6.4,6.4s2.9,6.4,6.4,6.4s6.4-2.9,6.4-6.4S83.9,45.1,80.4,45.1z M80.4,57.1   c-3.1,0-5.6-2.5-5.6-5.6s2.5-5.6,5.6-5.6c3.1,0,5.6,2.5,5.6,5.6S83.5,57.1,80.4,57.1z"/><path class="st4" d="M80.4,66.5c-3.5,0-6.4,2.9-6.4,6.4s2.9,6.4,6.4,6.4s6.4-2.9,6.4-6.4S83.9,66.5,80.4,66.5z M80.4,78.5   c-3.1,0-5.6-2.5-5.6-5.6c0-3.1,2.5-5.6,5.6-5.6c3.1,0,5.6,2.5,5.6,5.6C86,76,83.5,78.5,80.4,78.5z"/><ellipse class="st4" cx="80.4" cy="72.9" rx="4.9" ry="4.9" transform="matrix(0.9732 -0.2298 0.2298 0.9732 -14.5981 20.4222)"/></g></svg>