<svg xmlns="http://www.w3.org/2000/svg" version="1.1" xmlns:xlink="http://www.w3.org/1999/xlink" xmlns:svgjs="http://svgjs.com/svgjs" width="1440" height="560" preserveAspectRatio="none" viewBox="0 0 1440 560"><g mask="url(&quot;#SvgjsMask1031&quot;)" fill="none"><rect width="1440" height="560" x="0" y="0" fill="rgba(255, 255, 255, 1)"></rect><path d="M1512 560L0 560 L0 349.88Q25.82 255.7, 120 281.53Q162.73 252.26, 192 294.99Q263.57 294.56, 264 366.13Q281.99 312.12, 336 330.11Q385.16 259.27, 456 308.43Q507.92 240.35, 576 292.26Q670.92 267.18, 696 362.1Q730.77 276.87, 816 311.64Q867.11 242.75, 936 293.85Q1024.17 262.02, 1056 350.2Q1099.77 273.97, 1176 317.74Q1193.52 263.26, 1248 280.79Q1297.35 258.14, 1320 307.49Q1395.62 263.11, 1440 338.73Q1489.39 316.13, 1512 365.52z" fill="rgba(77, 77, 77, 1)"></path><path d="M1560 560L0 560 L0 361.46Q57.52 298.98, 120 356.49Q167.84 332.33, 192 380.17Q281.19 349.37, 312 438.56Q333.3 339.86, 432 361.15Q509.87 319.01, 552 396.88Q604.82 377.69, 624 430.51Q636.38 370.89, 696 383.27Q718.51 333.78, 768 356.29Q811.89 328.19, 840 372.08Q936.37 348.44, 960 444.81Q1000.44 365.25, 1080 405.68Q1114.65 320.33, 1200 354.98Q1267.37 302.35, 1320 369.71Q1414.09 343.79, 1440 437.88Q1484.94 362.82, 1560 407.77z" fill="rgba(103, 100, 100, 1)"></path><path d="M1560 560L0 560 L0 457.12Q65.12 450.24, 72 515.36Q72.86 444.22, 144 445.08Q171.95 401.03, 216 428.98Q313.87 406.85, 336 504.72Q355.5 452.22, 408 471.72Q421.08 412.81, 480 425.89Q522.91 396.8, 552 439.71Q599.02 414.73, 624 461.74Q698.09 415.83, 744 489.92Q775.51 401.44, 864 432.95Q946.38 395.32, 984 477.7Q1038.59 412.29, 1104 466.88Q1184.22 427.1, 1224 507.32Q1250.29 461.61, 1296 487.9Q1298.23 418.13, 1368 420.36Q1444.51 424.87, 1440 501.38Q1507.14 448.52, 1560 515.66z" fill="rgba(175, 169, 169, 1)"></path><path d="M1464 560L0 560 L0 516.31Q66.87 511.18, 72 578.05Q115.57 501.62, 192 545.18Q207.63 488.81, 264 504.45Q307.29 475.74, 336 519.02Q408.08 471.1, 456 543.18Q502.07 517.25, 528 563.32Q575.6 538.92, 600 586.53Q620.2 486.73, 720 506.93Q774.53 441.46, 840 495.98Q888.54 472.52, 912 521.06Q962.28 499.34, 984 549.61Q1038.57 532.18, 1056 586.75Q1083.65 542.4, 1128 570.06Q1144.05 514.11, 1200 530.15Q1230.82 488.96, 1272 519.78Q1318.68 494.46, 1344 541.15Q1380.3 457.44, 1464 493.74z" fill="rgba(212, 203, 203, 1)"></path></g><defs><mask id="SvgjsMask1031"><rect width="1440" height="560" fill="#ffffff"></rect></mask></defs></svg>