<svg xmlns="http://www.w3.org/2000/svg" version="1.1" xmlns:xlink="http://www.w3.org/1999/xlink" xmlns:svgjs="http://svgjs.com/svgjs" width="1440" height="560" preserveAspectRatio="none" viewBox="0 0 1440 560"><g mask="url(&quot;#SvgjsMask1293&quot;)" fill="none"><rect width="1440" height="560" x="0" y="0" fill="rgba(255, 255, 255, 1)"></rect><path d="M554.82 497.07 a159.91 159.91 0 1 0 319.82 0 a159.91 159.91 0 1 0 -319.82 0z" fill="rgba(81, 180, 160, 1)" class="triangle-float1"></path><path d="M921.8 491.98 a154.45 154.45 0 1 0 308.9 0 a154.45 154.45 0 1 0 -308.9 0z" fill="rgba(81, 180, 160, 1)" class="triangle-float2"></path><path d="M364.45 360.73 a182.92 182.92 0 1 0 365.84 0 a182.92 182.92 0 1 0 -365.84 0z" fill="rgba(81, 180, 160, 1)" class="triangle-float2"></path><path d="M65.63 525.02 a112.31 112.31 0 1 0 224.62 0 a112.31 112.31 0 1 0 -224.62 0z" fill="rgba(81, 180, 160, 1)" class="triangle-float3"></path><path d="M-161.02 27.85 a168.01 168.01 0 1 0 336.02 0 a168.01 168.01 0 1 0 -336.02 0z" fill="rgba(81, 180, 160, 1)" class="triangle-float2"></path></g><defs><mask id="SvgjsMask1293"><rect width="1440" height="560" fill="#ffffff"></rect></mask><style>
            @keyframes float1 {
                0%{transform: translate(0, 0)}
                50%{transform: translate(-10px, 0)}
                100%{transform: translate(0, 0)}
            }

            .triangle-float1 {
                animation: float1 5s infinite;
            }

            @keyframes float2 {
                0%{transform: translate(0, 0)}
                50%{transform: translate(-5px, -5px)}
                100%{transform: translate(0, 0)}
            }

            .triangle-float2 {
                animation: float2 4s infinite;
            }

            @keyframes float3 {
                0%{transform: translate(0, 0)}
                50%{transform: translate(0, -10px)}
                100%{transform: translate(0, 0)}
            }

            .triangle-float3 {
                animation: float3 6s infinite;
            }
        </style></defs></svg>