<svg xmlns="http://www.w3.org/2000/svg" viewBox="0 0 600 501"><defs><clipPath id="a"><rect width="599.77" height="501" x=".23" fill="none"/></clipPath></defs><g data-name="Layer 10"><g clip-path="url(#a)"><rect width="599.77" height="501" x=".23" fill="#3f5d96"/><polygon fill="#31314a" points="411 302 359 323 358 339 358 419 377 437 475 437 533 401 536 334.28 463 297 411 302"/><polygon fill="#c74a44" points="187.63 291 176.23 293.63 164 298.65 153.88 314.3 152.53 324.88 155.22 331.18 152.53 327.57 148.93 343.36 218.9 437 280 428.38 282.8 348.13 277.4 341.07 273.13 342.48 275.5 338.28 271 328.93 271 333.5 269.3 325.1 265.93 314.3 260.52 309 251.9 306.5 250.96 311.49 250.63 305 187.63 291"/><polygon fill="#fafafc" points="183.4 396 156.17 406 155.6 426.72 168.42 432.62 183.4 396"/><rect width="225.58" height="156.9" x="229.31" y="109.2" fill="#fff" rx="3.85"/><rect width="215.21" height="147.56" x="234.5" y="113.87" fill="#303030" rx="2.7"/><path fill="#fcfcfc" d="M251.45,193.59l70-36.81,4.8-2.52,3.44,3,24.87,21.83-6.24-.09c4.37-2.39,8.64-4.93,12.9-7.47l6.36-3.87,6.3-4c2.1-1.31,4.17-2.67,6.26-4s4.17-2.67,6.22-4c4.13-2.74,8.27-5.44,12.35-8.25l1.39,1.92c-3.93,3-7.79,6.11-11.67,9.18-1.95,1.53-3.86,3.1-5.78,4.66s-3.85,3.12-5.75,4.71l-5.7,4.77-5.65,4.84c-3.74,3.27-7.48,6.53-11.11,10l-2.54,2.4-3.7-2.48L320.72,169l8.25.5-66,43.68Z"/><polygon fill="#fcfcfc" points="399.79 161.41 425.98 129.11 387.15 143.99 399.79 161.41"/><rect width="13.87" height="73.81" x="409.83" y="162.56" fill="#4154c9"/><rect width="13.87" height="58.84" x="376.85" y="177.53" fill="#4154c9"/><rect width="13.87" height="34.46" x="343.86" y="201.91" fill="#ed4a8c"/><rect width="13.87" height="45.8" x="310.87" y="190.57" fill="#4154c9"/><rect width="13.87" height="23.23" x="277.88" y="213.14" fill="#ed4a8c"/><polyline fill="none" stroke="#fff" stroke-linecap="round" stroke-miterlimit="10" stroke-width="1.48" points="273.07 243.76 431.18 243.76 431.18 142.55"/><rect width="17.23" height="3.56" x="250.76" y="121.65" fill="#d8d8d8"/><rect width="3.56" height="3.56" x="250.76" y="129.11" fill="#d8d8d8" transform="rotate(180 252.54 130.885)"/><rect width="3.56" height="3.56" x="257.6" y="129.11" fill="#d8d8d8" transform="rotate(180 259.375 130.885)"/><rect width="3.56" height="3.56" x="264.44" y="129.11" fill="#d8d8d8" transform="rotate(180 266.215 130.885)"/><rect width="3.56" height="3.56" x="271.27" y="129.11" fill="#d8d8d8" transform="rotate(180 273.05 130.885)"/><rect width="3.56" height="3.56" x="278.11" y="129.11" fill="#d8d8d8" transform="rotate(180 279.885 130.885)"/><rect width="3.56" height="3.56" x="284.94" y="129.11" fill="#d8d8d8" transform="rotate(180 286.725 130.885)"/><rect width="3.56" height="3.56" x="284.94" y="121.65" fill="#d8d8d8" transform="rotate(180 286.725 123.43)"/><rect width="10.67" height="3.56" x="270.99" y="121.65" fill="#d8d8d8"/><circle cx="203.02" cy="57.24" r="28.97" fill="#ed4a8c"/><circle cx="203.02" cy="57.24" r="23.45" fill="#fff"/><polyline fill="none" stroke="#3f3f3f" stroke-linecap="round" stroke-linejoin="round" stroke-width="3.19" points="203.02 44.6 203.02 57.24 210.01 57.24"/><polygon fill="#b79072" points="534 500 534.65 509 547.33 487.63 539 482.83 534 500"/><polygon fill="#fff4eb" points="572 428 282 406 -66 493 534 500 572 428"/><polygon fill="#b79072" points="-66 493 -66 500 534.65 509 534 500 -66 493"/><polyline fill="none" stroke="#7f7f7f" stroke-linecap="round" stroke-miterlimit="10" stroke-width="2" points="86.6 474.05 194.3 478 197.75 468.2 197.75 459"/><polygon fill="#f9f9f9" points="86.6 465 86.91 473.09 193.47 477.31 196.85 467.75 196.85 457.96 194.71 453.69 109.44 451.21 86.6 465"/><polygon fill="#a5a5a5" points="193.05 464.2 192.25 464.19 192.27 455.48 192.97 455.48 193.05 464.2"/><polygon fill="#a5a5a5" points="190.06 464.14 189.26 464.12 189.65 455.46 190.34 455.47 190.06 464.14"/><polygon fill="#a5a5a5" points="187.1 464.07 186.31 464.05 187.06 455.44 187.75 455.45 187.1 464.07"/><polygon fill="#a5a5a5" points="184.17 464 183.4 463.99 184.49 455.43 185.17 455.43 184.17 464"/><polygon fill="#a5a5a5" points="181.28 463.94 180.51 463.92 181.95 455.41 182.63 455.42 181.28 463.94"/><polygon fill="#a5a5a5" points="178.42 463.87 177.66 463.86 179.43 455.4 180.1 455.4 178.42 463.87"/><polygon fill="#a5a5a5" points="175.59 463.81 174.84 463.79 176.94 455.38 177.6 455.39 175.59 463.81"/><polygon fill="#a5a5a5" points="172.79 463.75 172.05 463.73 174.47 455.37 175.13 455.37 172.79 463.75"/><polygon fill="#a5a5a5" points="170.04 463.77 169.33 463.77 172.15 455.39 172.87 455.38 170.04 463.77"/><polygon fill="#a5a5a5" points="167.39 463.78 166.68 463.78 169.44 455.41 170.16 455.41 167.39 463.78"/><polygon fill="#a5a5a5" points="164.75 463.79 164.04 463.79 166.75 455.44 167.47 455.43 164.75 463.79"/><polygon fill="#a5a5a5" points="162.12 463.79 161.42 463.79 164.07 455.46 164.79 455.45 162.12 463.79"/><polygon fill="#a5a5a5" points="159.5 463.8 158.81 463.8 161.41 455.48 162.12 455.48 159.5 463.8"/><polygon fill="#a5a5a5" points="156.89 463.8 156.2 463.8 158.75 455.51 159.46 455.5 156.89 463.8"/><polygon fill="#a5a5a5" points="154.3 463.81 153.61 463.81 156.1 455.53 156.81 455.52 154.3 463.81"/><polygon fill="#a5a5a5" points="151.71 463.81 151.02 463.82 153.46 455.55 154.17 455.55 151.71 463.81"/><polygon fill="#a5a5a5" points="159.81 470.16 160.6 470.19 167.62 466.29 166.87 466.3 159.81 470.16"/><polygon fill="#a5a5a5" points="162.85 470.25 163.69 470.28 170.57 466.26 169.77 466.27 162.85 470.25"/><polygon fill="#a5a5a5" points="166.08 470.35 166.98 470.38 173.69 466.23 172.84 466.24 166.08 470.35"/><polygon fill="#a5a5a5" points="169.54 470.45 170.51 470.48 177 466.19 176.1 466.2 169.54 470.45"/><polygon fill="#a5a5a5" points="173.25 470.56 174.29 470.59 180.52 466.15 179.56 466.16 173.25 470.56"/><polygon fill="#a5a5a5" points="177.24 470.68 178.35 470.71 184.28 466.11 183.25 466.12 177.24 470.68"/><polygon fill="#a5a5a5" points="181.53 470.81 182.73 470.84 188.29 466.07 187.19 466.08 181.53 470.81"/><polygon fill="#a5a5a5" points="186.17 470.94 187.47 470.98 192.58 466.02 191.41 466.03 186.17 470.94"/><polygon fill="#a5a5a5" points="127.61 470.13 128.66 470.13 138.7 466.57 137.78 466.57 127.61 470.13"/><polygon fill="#a5a5a5" points="131.56 470.12 132.62 470.12 142.17 466.55 141.25 466.56 131.56 470.12"/><polygon fill="#a5a5a5" points="135.53 470.11 136.58 470.1 145.66 466.54 144.73 466.54 135.53 470.11"/><polygon fill="#a5a5a5" points="139.5 470.1 140.57 470.09 149.15 466.52 148.22 466.53 139.5 470.1"/><polygon fill="#a5a5a5" points="143.49 470.08 144.56 470.08 152.66 466.51 151.72 466.51 143.49 470.08"/><polygon fill="#a5a5a5" points="147.5 470.07 148.57 470.07 156.17 466.49 155.23 466.5 147.5 470.07"/><polygon fill="#a5a5a5" points="151.51 470.06 152.59 470.06 159.69 466.48 158.75 466.48 151.51 470.06"/><polygon fill="#a5a5a5" points="155.55 470.05 156.62 470.05 163.23 466.46 162.28 466.47 155.55 470.05"/><line x1="86.73" x2="165.76" y1="469.3" y2="471.69" fill="none" stroke="#a5a5a5" stroke-miterlimit="10" stroke-width=".15"/><line x1="86.78" x2="121.4" y1="469.72" y2="470.89" fill="none" stroke="#a5a5a5" stroke-miterlimit="10" stroke-width=".16"/><line x1="86.73" x2="99.65" y1="470.1" y2="470.54" fill="none" stroke="#a5a5a5" stroke-miterlimit="10" stroke-width=".15"/><line x1="86.73" x2="94.47" y1="470.89" y2="471.09" fill="none" stroke="#a5a5a5" stroke-miterlimit="10" stroke-width=".15"/><line x1="86.73" x2="110.9" y1="471.69" y2="472.59" fill="none" stroke="#a5a5a5" stroke-miterlimit="10" stroke-width=".15"/><polygon fill="#d3d3d3" points="273.2 446.29 273.2 449.29 348.91 452.96 352.08 438.82 273.2 446.29"/><polygon fill="#fff" points="280.86 432.43 273.2 446.29 348.91 449.96 352.08 435.82 280.86 432.43"/><polygon fill="#0c0c0c" points="14.93 472.77 0 476.5 66.39 468.83 14.93 472.77" opacity=".47"/><polyline fill="#0c0c0c" points="235.58 436.54 211.21 438.96 158.12 431.09 172.41 425.9 235.58 436.54" opacity=".39"/><path fill="#0c0c0c" d="M205.08 468.93s16.14 4.86 29.24 4.07-1.9-4.07-1.9-4.07M231.3 456.38s16.64 5 29.75 4.21-2.41-4.21-2.41-4.21M253.57 422.92s19 6.22 32.07 5.44-4.73-5.44-4.73-5.44M351.59 468.79s14.23 3.69 27.34 2.9 0-2.9 0-2.9M392.37 439.49s14.24 3.69 27.34 2.91 0-2.91 0-2.91" opacity=".47"/><polyline fill="#0c0c0c" points="311.01 425.07 422.35 454.37 481 459 460 437.35 485.3 424.13 381.61 420.44 309.93 423.99" opacity=".39"/><path d="M395,465s-24,30-23,29,120,3,120,3l13-26Z" opacity=".34"/><path fill="#fff" d="M394,464s-24,30-23,29,120,3,120,3l13-26Z"/><line x1="384" x2="392.17" y1="490" y2="479.89" fill="none" stroke="#ccc" stroke-linecap="round" stroke-linejoin="round"/><line x1="396.83" x2="405" y1="474.11" y2="464" fill="none" stroke="#ccc" stroke-linecap="round" stroke-linejoin="round"/><line x1="391" x2="398.85" y1="490" y2="480.28" fill="none" stroke="#ccc" stroke-linecap="round" stroke-linejoin="round"/><line x1="399.9" x2="403.6" y1="478.99" y2="474.39" fill="none" stroke="#ccc" stroke-dasharray="1.72 1.66 1.66 1.72" stroke-linecap="round" stroke-linejoin="round"/><line x1="404.15" x2="412" y1="473.72" y2="464" fill="none" stroke="#ccc" stroke-linecap="round" stroke-linejoin="round"/><line x1="413.39" x2="421.24" y1="490" y2="480.28" fill="none" stroke="#ccc" stroke-linecap="round" stroke-linejoin="round"/><line x1="422.28" x2="425.99" y1="478.99" y2="474.39" fill="none" stroke="#ccc" stroke-dasharray="1.72 1.66 1.66 1.72" stroke-linecap="round" stroke-linejoin="round"/><line x1="426.53" x2="434.39" y1="473.72" y2="464" fill="none" stroke="#ccc" stroke-linecap="round" stroke-linejoin="round"/><line x1="398" x2="398.94" y1="491" y2="489.83" fill="none" stroke="#ccc" stroke-linecap="round" stroke-linejoin="round"/><line x1="400.68" x2="417.19" y1="487.68" y2="467.24" fill="none" stroke="#ccc" stroke-dasharray="2.77 2.77" stroke-linecap="round" stroke-linejoin="round"/><line x1="418.06" x2="419" y1="466.17" y2="465" fill="none" stroke="#ccc" stroke-linecap="round" stroke-linejoin="round"/><line x1="420.14" x2="421.08" y1="491" y2="489.83" fill="none" stroke="#ccc" stroke-linecap="round" stroke-linejoin="round"/><line x1="422.82" x2="439.33" y1="487.68" y2="467.24" fill="none" stroke="#ccc" stroke-dasharray="2.77 2.77" stroke-linecap="round" stroke-linejoin="round"/><line x1="440.2" x2="441.14" y1="466.17" y2="465" fill="none" stroke="#ccc" stroke-linecap="round" stroke-linejoin="round"/><line x1="427.48" x2="428.43" y1="491" y2="489.83" fill="none" stroke="#ccc" stroke-linecap="round" stroke-linejoin="round"/><line x1="430.17" x2="446.67" y1="487.68" y2="467.24" fill="none" stroke="#ccc" stroke-dasharray="2.77 2.77" stroke-linecap="round" stroke-linejoin="round"/><line x1="447.54" x2="448.48" y1="466.17" y2="465" fill="none" stroke="#ccc" stroke-linecap="round" stroke-linejoin="round"/><path d="M406,458s-24,30-23,29,120,3,120,3l13-26Z" opacity=".34"/><path fill="#fff" d="M405,457s-24,30-23,29,120,3,120,3l13-26Z"/><line x1="400" x2="400.94" y1="483" y2="481.83" fill="none" stroke="#ccc" stroke-linecap="round" stroke-linejoin="round"/><line x1="402.68" x2="419.19" y1="479.68" y2="459.24" fill="none" stroke="#ccc" stroke-dasharray="2.77 2.77" stroke-linecap="round" stroke-linejoin="round"/><line x1="420.06" x2="421" y1="458.17" y2="457" fill="none" stroke="#ccc" stroke-linecap="round" stroke-linejoin="round"/><line x1="405.93" x2="406.87" y1="483" y2="481.83" fill="none" stroke="#ccc" stroke-linecap="round" stroke-linejoin="round"/><line x1="408.61" x2="425.12" y1="479.68" y2="459.24" fill="none" stroke="#ccc" stroke-dasharray="2.77 2.77" stroke-linecap="round" stroke-linejoin="round"/><line x1="425.99" x2="426.93" y1="458.17" y2="457" fill="none" stroke="#ccc" stroke-linecap="round" stroke-linejoin="round"/><line x1="411.89" x2="412.83" y1="483" y2="481.83" fill="none" stroke="#ccc" stroke-linecap="round" stroke-linejoin="round"/><line x1="414.57" x2="431.07" y1="479.68" y2="459.24" fill="none" stroke="#ccc" stroke-dasharray="2.77 2.77" stroke-linecap="round" stroke-linejoin="round"/><line x1="431.94" x2="432.89" y1="458.17" y2="457" fill="none" stroke="#ccc" stroke-linecap="round" stroke-linejoin="round"/><line x1="427.48" x2="428.43" y1="483" y2="481.83" fill="none" stroke="#ccc" stroke-linecap="round" stroke-linejoin="round"/><line x1="430.17" x2="446.67" y1="479.68" y2="459.24" fill="none" stroke="#ccc" stroke-dasharray="2.77 2.77" stroke-linecap="round" stroke-linejoin="round"/><line x1="447.54" x2="448.48" y1="458.17" y2="457" fill="none" stroke="#ccc" stroke-linecap="round" stroke-linejoin="round"/><line x1="432.98" x2="433.92" y1="483" y2="481.83" fill="none" stroke="#ccc" stroke-linecap="round" stroke-linejoin="round"/><line x1="435.66" x2="452.16" y1="479.68" y2="459.24" fill="none" stroke="#ccc" stroke-dasharray="2.77 2.77" stroke-linecap="round" stroke-linejoin="round"/><line x1="453.03" x2="453.98" y1="458.17" y2="457" fill="none" stroke="#ccc" stroke-linecap="round" stroke-linejoin="round"/><polygon fill="#ffb56c" points="452.16 402.55 441 403 439 418 455.82 421.18 463 408 452.16 402.55"/><polygon fill="#0b0618" points="449.84 431 450 435 472 425 472 422 449.84 431"/><polygon fill="#181844" points="479 417 474.86 423.71 465 424 478 430 481 430 481 417 479 417"/><polygon fill="#e5e5e5" points="449.84 431 472 422 333 413 309.78 422 449.84 431"/><polygon fill="#f6f6ff" points="451 401 457 409 452.25 420.72 446 422 451 424 477 424 483 417 467 403 451 401"/><polygon fill="#ffb56c" points="417 300 421 312 433 323 460 300 460 277 417 300"/><polygon fill="#e4e4ea" points="413 300 412 302 411 334 417 346 430 326 434 325 448 339 448 347 463 298 460 291 457 302 434 321 420.2 309.8 420 302 413 300"/><polygon fill="#fccc8b" points="409 240 406 259 407 267 407 278 413 302 427 305 449 294 456 280 456 283 467 273 465 262 458 249 452 236 424 227 409 240"/><polygon fill="#a0a0a0" points="409 240 432 233 451 240 440 250 446 262 446 277 453 283 454 268 459 259 465 262 472 240 456 220 432 219 422 210 418 220 409 214 409 228 394 230 407 235 402 247 404 255 404 247 409 240"/><polygon fill="#8a8a8a" points="412 302 390 323 397 331 406 327 399 333 388 343 411 406 411 325.1 412 302"/><polygon fill="#8a8a8a" points="463 297 472 307 477 329 467 333 460 326 472 341 450 385 443 407 446 357 463 297"/><path fill="#0b0618" d="M303.39,334.17,311.75,424,450,435l-3.83-95.67a4.66,4.66,0,0,0-4.5-4.48l-134.48-4.7A3.68,3.68,0,0,0,303.39,334.17Z"/><path fill="#848484" d="M304.56,333.54,442.91,338a1.16,1.16,0,0,1,1.14,1.12l4,94.6a1.17,1.17,0,0,1-1.25,1.22L311,425.07a1.16,1.16,0,0,1-1.08-1.08l-6.58-89.19A1.17,1.17,0,0,1,304.56,333.54Z"/><path fill="#292941" d="M463,401s16,14,16,16v12h-2l-10-5h-5l15,7,59-6-3-24H515l-5,3,7-6h17l2-61-28.86-17.46L494,337l1,57Z"/><path fill="#fff" d="M380,370.77c0,5.4-4.4,8.7-9.75,8.18s-9.18-3.85-9.77-10.35c-.47-5.31,4.39-9.63,9.77-9.19C376.34,359.92,380,365,380,370.77Z"/><path fill="#2d2d2d" d="M240.2,309l6.52-24,2.78-50.47-9.3-17.1-10.5-1.5,3.3,7.2-5.7-8.7-13.8,2.4L203,221l-3.3,8.4-5.4,5.7,1.8,5.4-1.8-1.8V241l1.09,1.46-1.09-.34-.82,7.32-1.8,4.72,2.62,16.31-19.62,23.85s12.95-2.81,15.2-4.72,11.25-9.67,11.25-9.67Z"/><polygon fill="#fcc69d" points="202.4 270.8 204.8 285.8 225.2 314.3 233.6 311.9 235.1 292.4 202.4 270.8"/><polygon fill="#f8fdff" points="225.8 310.85 212.09 317.9 236.9 407 245.45 408.8 239.15 320.38 225.8 310.85"/><polygon fill="#c9c9c9" points="203.3 281.5 206 283 225.8 310.85 218.45 317.3 212.9 330 203.3 281.5"/><polygon fill="#ffdab8" points="235.1 234.2 242.45 231.65 248.3 238.55 249.5 259 249.5 263.6 245.68 285.27 233.5 297 223.1 297 204.5 280.7 202.4 270.8 199.4 272.6 194.3 263.2 194.3 252.2 197.9 253.4 203 263.2 208.1 250.4 214.4 246.5 208.7 246.5 215.9 242 208.4 243.8 214.1 239.5 209.9 239.5 217.4 231.5 231.5 229.4 235.1 234.2"/><path fill="#de9695" d="M200.75,278.9,185.9,289.7l3.15,13.65L204.5,310l-7.35,6.75,31.2,51S211,300.05,210.8,299.3s-6.75-18-6.75-18Z"/><path fill="#c9c9c9" d="M227.15,309l-1.35,1.85L235.1,326l4.05-21.15-4.05-9.12s-2.1,2.57-1.95,2.92,1.23,3.11,1.23,3.11Z"/><path fill="#de9695" d="M237.2,305.3l-4.2,9L237.2,388l14-36.94.75-16.61-9.45-20.7s7.35,7.35,7.8,6.75-.75-13.95-.75-13.95L235.1,297Z"/><polygon fill="#c74a44" points="269.3 394.5 263.68 396 280.86 403.72 275.5 416 296 413 293.82 398 273.35 391.48 269.3 394.5"/><polygon fill="#ffcea6" points="274.02 416 263.68 416 266.6 407 262.1 416 254 416 262.1 398 250.85 416 236.22 413 237.13 391.48 249.5 386.3 253 387.95 258.27 387.95 260.75 391 262.55 389.68 273.02 400.2 280.86 403.72 275.5 416 274.02 416"/><ellipse cx="271.75" cy="386.3" fill="#bccce0" rx="16.35" ry=".92"/><path fill="#bccce0" d="M285.42,424.13c0,.42-6.12.76-13.67.76s-13.67-.34-13.67-.76,6.12-.77,13.67-.77S285.42,423.7,285.42,424.13Z"/><path fill="#8ea3f9" d="M285.42,424.13v1.72c0,.43-6.12.77-13.67.77s-13.67-.34-13.67-.77v-1.72c0,.42,6.12.76,13.67.76S285.42,424.55,285.42,424.13Z"/><path fill="#bccce0" d="M288.1,386.3l-2.68,37.83c0-.43-6.12-.77-13.67-.77s-13.67.34-13.67.77L255.4,386.3c0,.51,7.32.91,16.35.91S288.1,386.81,288.1,386.3Z"/><path fill="#8ea3f9" d="M258.13,399.39l1.12,23.51c0,.53.77,1,1.76,1l2.15.15a124.83,124.83,0,0,0,17.19.05l2.46-.17c1-.06,1.76-.5,1.78-1l1.05-23.69c0-.53-.71-1-1.73-1.08a151.44,151.44,0,0,0-24.1.14C258.81,398.4,258.1,398.86,258.13,399.39Z"/><line x1="283.6" x2="283.07" y1="389.05" y2="400.36" fill="none" stroke="#fff" stroke-linecap="round" stroke-miterlimit="10" stroke-width="1.45"/><line x1="283.04" x2="283.02" y1="402.75" y2="403.26" fill="none" stroke="#fff" stroke-linecap="round" stroke-miterlimit="10" stroke-width="1.45"/><ellipse cx="277.3" cy="415.95" fill="#fff" rx=".45" ry=".24"/><ellipse cx="277.75" cy="414.02" fill="#fff" rx=".45" ry=".24"/><ellipse cx="275.54" cy="413.47" fill="#fff" rx=".45" ry=".24"/><ellipse cx="278.02" cy="412.16" fill="#fff" rx=".45" ry=".24"/><ellipse cx="276.69" cy="410.76" fill="#fff" rx=".29" ry=".15"/><ellipse cx="279.2" cy="409.08" fill="#fff" rx=".29" ry=".15"/><ellipse cx="277.28" cy="408.78" fill="#fff" rx=".29" ry=".15"/><ellipse cx="279.34" cy="407.15" fill="#fff" rx=".14" ry=".07"/><polygon fill="#ffb680" points="247.85 393.05 244.44 394.7 242.45 404 245.45 396 247.85 393.05"/><polygon fill="#ffb680" points="252.72 396 245.68 409.36 254.45 396 252.72 396"/><polygon fill="#fcab75" points="299 387.95 337.7 388.7 328.7 404 326.23 407 309.34 416 299 409 299 387.95"/><polygon fill="#c15c17" points="254.6 417.8 247.85 429.95 253 435.35 261.05 429.35 254.6 417.8"/><polygon fill="#dd996b" points="225.8 411.5 244.55 413 259.63 410.15 264.8 416 266.15 421.63 266.15 416.9 268.85 419.6 268.85 422.75 269.64 423.54 271 429.05 278.15 439.25 272.75 445.1 267.05 445.1 271.85 441.5 271.7 438.95 271.49 441.37 266.71 445.1 256.08 445.1 254.9 443.51 264.35 433.94 254.22 442.66 250.4 440.3 250.63 431.52 253 431.3 254.11 432.65 257.94 425.11 255.57 425.9 255.46 419.6 254.11 431.07 251.97 430.51 251.97 439.96 243.31 439.18 235.78 442.44 223.29 437 212.81 436.58 217.1 411.5 225.8 411.5"/><ellipse cx="246.01" cy="417.82" fill="#bccce0" rx="16.35" ry=".92"/><path fill="#bccce0" d="M259.68,455.65c0,.42-6.12.76-13.67.76s-13.67-.34-13.67-.76,6.12-.77,13.67-.77S259.68,455.22,259.68,455.65Z"/><path fill="#8ea3f9" d="M259.68,455.65v1.72c0,.43-6.12.77-13.67.77s-13.67-.34-13.67-.77v-1.72c0,.42,6.12.76,13.67.76S259.68,456.07,259.68,455.65Z"/><path fill="#bccce0" d="M262.36,417.82l-2.68,37.83c0-.43-6.12-.77-13.67-.77s-13.67.34-13.67.77l-2.68-37.83c0,.5,7.32.91,16.35.91S262.36,418.32,262.36,417.82Z"/><path fill="#8ea3f9" d="M232.39,430.9l1.12,23.52c0,.53.77,1,1.76,1l2.15.16a124.83,124.83,0,0,0,17.19,0l2.46-.16c1-.07,1.76-.5,1.78-1l1-23.69c0-.54-.71-1-1.73-1.08a151.57,151.57,0,0,0-24.11.14C233.07,429.92,232.36,430.38,232.39,430.9Z"/><line x1="257.86" x2="257.33" y1="420.57" y2="431.87" fill="none" stroke="#fff" stroke-linecap="round" stroke-miterlimit="10" stroke-width="1.45"/><line x1="257.3" x2="257.28" y1="434.27" y2="434.78" fill="none" stroke="#fff" stroke-linecap="round" stroke-miterlimit="10" stroke-width="1.45"/><ellipse cx="251.56" cy="447.46" fill="#fff" rx=".45" ry=".24"/><ellipse cx="252.01" cy="445.54" fill="#fff" rx=".45" ry=".24"/><ellipse cx="249.8" cy="444.99" fill="#fff" rx=".45" ry=".24"/><ellipse cx="252.27" cy="443.67" fill="#fff" rx=".45" ry=".24"/><ellipse cx="250.95" cy="442.28" fill="#fff" rx=".29" ry=".15"/><ellipse cx="253.46" cy="440.59" fill="#fff" rx=".29" ry=".15"/><ellipse cx="251.54" cy="440.29" fill="#fff" rx=".29" ry=".15"/><ellipse cx="253.6" cy="438.67" fill="#fff" rx=".14" ry=".07"/><ellipse cx="365.26" cy="427.68" fill="#bccce0" rx="16.35" ry=".96"/><path fill="#bccce0" d="M378.93,467.29c0,.44-6.12.8-13.67.8s-13.67-.36-13.67-.8,6.12-.81,13.67-.81S378.93,466.84,378.93,467.29Z"/><path fill="#8ea3f9" d="M378.93,467.29v1.8c0,.45-6.12.8-13.67.8s-13.67-.35-13.67-.8v-1.8c0,.44,6.12.8,13.67.8S378.93,467.73,378.93,467.29Z"/><path fill="#bccce0" d="M381.61,427.68l-2.68,39.61c0-.45-6.12-.81-13.67-.81s-13.67.36-13.67.81l-2.68-39.61c0,.53,7.32.95,16.35.95S381.61,428.21,381.61,427.68Z"/><path fill="#8ea3f9" d="M351.64,441.38,352.76,466c0,.54.77,1,1.76,1.08l2.15.16a120.27,120.27,0,0,0,17.19.05l2.46-.18c1-.07,1.76-.53,1.78-1.08l1-24.8c0-.56-.72-1.05-1.73-1.13a143.74,143.74,0,0,0-24.11.15C352.32,440.34,351.61,440.83,351.64,441.38Z"/><line x1="377.11" x2="376.58" y1="430.55" y2="442.4" fill="none" stroke="#fff" stroke-linecap="round" stroke-miterlimit="10" stroke-width="1.48"/><line x1="376.55" x2="376.53" y1="444.9" y2="445.44" fill="none" stroke="#fff" stroke-linecap="round" stroke-miterlimit="10" stroke-width="1.48"/><ellipse cx="370.81" cy="458.72" fill="#fff" rx=".45" ry=".25"/><ellipse cx="371.26" cy="456.7" fill="#fff" rx=".45" ry=".25"/><ellipse cx="369.05" cy="456.13" fill="#fff" rx=".45" ry=".25"/><ellipse cx="371.52" cy="454.75" fill="#fff" rx=".45" ry=".25"/><ellipse cx="370.2" cy="453.29" fill="#fff" rx=".29" ry=".16"/><ellipse cx="372.71" cy="451.53" fill="#fff" rx=".29" ry=".16"/><ellipse cx="370.79" cy="451.21" fill="#fff" rx=".29" ry=".16"/><ellipse cx="372.85" cy="449.51" fill="#fff" rx=".14" ry=".08"/><ellipse cx="406" cy="402.83" fill="#bccce0" rx="16.35" ry=".85"/><path fill="#bccce0" d="M419.67,438.06c0,.39-6.12.71-13.67.71s-13.67-.32-13.67-.71,6.12-.71,13.67-.71S419.67,437.66,419.67,438.06Z"/><path fill="#8ea3f9" d="M419.67,438.06v1.61c0,.39-6.12.71-13.67.71s-13.67-.32-13.67-.71v-1.61c0,.39,6.12.71,13.67.71S419.67,438.45,419.67,438.06Z"/><path fill="#bccce0" d="M422.35,402.83l-2.68,35.23c0-.4-6.12-.71-13.67-.71s-13.67.31-13.67.71l-2.68-35.23c0,.47,7.32.85,16.35.85S422.35,403.3,422.35,402.83Z"/><path fill="#8ea3f9" d="M392.37,415l1.12,21.9c0,.49.78.89,1.77,1l2.15.15a135.06,135.06,0,0,0,17.19,0l2.46-.15c1-.07,1.76-.48,1.78-1l1.05-22.06c0-.5-.72-.93-1.73-1a163,163,0,0,0-24.11.13C393.06,414.1,392.35,414.53,392.37,415Z"/><line x1="417.85" x2="417.32" y1="405.39" y2="415.92" fill="none" stroke="#fff" stroke-linecap="round" stroke-miterlimit="10" stroke-width="1.4"/><line x1="417.29" x2="417.26" y1="418.15" y2="418.63" fill="none" stroke="#fff" stroke-linecap="round" stroke-miterlimit="10" stroke-width="1.4"/><ellipse cx="411.55" cy="430.44" fill="#fff" rx=".45" ry=".22"/><ellipse cx="412" cy="428.65" fill="#fff" rx=".45" ry=".22"/><ellipse cx="409.79" cy="428.14" fill="#fff" rx=".45" ry=".22"/><ellipse cx="412.26" cy="426.91" fill="#fff" rx=".45" ry=".22"/><ellipse cx="410.94" cy="425.61" fill="#fff" rx=".29" ry=".14"/><ellipse cx="413.45" cy="424.04" fill="#fff" rx=".29" ry=".14"/><ellipse cx="411.53" cy="423.76" fill="#fff" rx=".29" ry=".14"/><ellipse cx="413.59" cy="422.25" fill="#fff" rx=".14" ry=".07"/><polygon fill="#dd996b" points="245.45 356.38 279.84 359.82 284 360.88 311.38 358.63 329.86 365.82 329.86 368.98 310.31 364 292 364 284 378 293 378 300 371 306.65 372.69 323.98 392.04 336 404 332.94 409.87 321.5 403.74 315.6 396 320.09 403.74 326.23 407 325.32 410.9 321.13 414.35 317.98 413 312.27 407.3 317.15 413 315.27 416.9 311.38 416.52 305.3 410.15 309.34 416 305.52 416.9 300 414.57 299.9 409.77 296.87 407.13 297.95 405.13 294.8 400.85 289.86 401 290.82 399.13 288.88 395.82 284 396 282.12 398.82 277.85 395.47 280 393.95 273.01 391.02 272.34 392.21 264.91 385.18 256.25 384 235.78 386.3 245.45 356.38"/><path fill="#c5c8d1" d="M94.43,277,71.9,274.1s7.5,5.1,6.6,4.8-9-1.9-9-1.9L44,292.55l-24.9,43.8L6.8,453l40.5,12,103.15-26.11-7.6-9.09V378.5l8.32-45-4.27-22.63-3-1.87.6,8-1.65-10.46Z"/><polygon fill="#dd996b" points="105.95 270.8 102.35 251.3 104.15 229.4 115.85 214.4 141.95 207.2 169.85 220.7 180.2 246.5 177.5 259 178.4 272.6 164.9 292.55 159.95 300.23 150.95 297 146.9 300.23 136.55 314.3 102.35 272.6 105.95 270.8"/><polygon fill="#c5c8d1" points="92 278.9 102.35 270.8 133.4 305 138.8 319 132.95 336.35 92 278.9"/><polygon fill="#c5c8d1" points="138.8 310.85 138.8 319 142.85 336.35 141.28 309 138.8 310.85"/><polygon fill="#282828" points="129.8 373.7 125.9 425.3 140.82 438.5 142.85 424.7 142.85 371.9 129.8 373.7"/><polygon fill="#b7b7b7" points="142.85 402.55 156.35 428.5 159.5 413 160.71 412.12 180.2 398 162.35 413.9 160.93 429.43 215.86 437 221.9 416 228.35 411.5 202.4 399.2 191.6 389.3 148.44 319 142.85 371.9 142.85 402.55"/><path fill="#fafafc" d="M46.7,338.28V312.5S69.5,284.3,71,284.6s28,4.13,28,4.13l19.4,22.12s-16.2-6.15-16.05-5.85,18.45,9.3,18.45,9.3l3,6.3-18.9-5.1L101,326l6.6-7,31.2,5.8,2.57,5.2v-4l7.55,4,2.25,9.2v-5.7l13.43,2.85,15.6-2.85,26.93,12.78,5,9.42V347l9.81,6.13L253,355.7l-10.55,9.6,1.13,17.2-3.08-1,3.9,8.1H174.68L145.4,380l-19.5-8.1-15.3-4.2L64.7,343.36,74.3,351Z"/><polyline fill="#894a1f" points="315.6 396 319.83 404.56 326 407.99 326.23 407 320.09 403.74 315.6 396"/><polyline fill="#894a1f" points="306.35 372.8 303.7 372.05 335.41 405.21 336 404.24 323.98 392.04 306.35 372.8"/><polygon fill="#894a1f" points="312.27 407.3 316.81 413.71 317.15 413 312.27 407.3"/><polyline fill="#894a1f" points="305.3 410.15 308.57 416.18 309.34 416 305.3 410.15"/><polygon fill="#894a1f" points="300.11 369.99 296 375 301.14 372.49 307.32 373.86 300.11 369.99"/><polygon fill="#fcab75" points="16.4 326 20.9 330 63.8 411.5 127.51 426.73 141.35 429.35 168.65 423.2 182.9 437.75 182.9 447.2 170.45 447.95 171.35 457.7 160.4 462.35 33.35 440.75 19.25 422.45 16.4 326"/><polygon fill="#fcab75" points="38.45 284.6 30.13 286.85 12.8 309 9.88 319.93 16.4 335 12.8 342.48 .49 342.48 0 245.68 38.45 284.6"/><polygon fill="#50ae98" points="11.38 314.3 8.3 321.2 14.6 336.35 11.45 341 0 335.15 1.1 436.4 14.6 440.75 35.15 408.95 36.35 387.2 17.3 334.7 18.18 325.4 11.38 314.3"/><polygon fill="#fcc69d" points="56.9 202.1 49.1 199.4 28.4 213.5 22.7 216.5 29 216.5 22.7 221.6 20.56 201.24 10.21 199.4 12.8 267.2 34.35 285.71 58.4 289.7 58.4 279.5 58.1 268.32 59.58 264.85 51.29 260.66 48.2 259.1 59.58 264.85 62.6 260.75 62.6 257.6 71.6 254 68.9 244.55 62.9 228.8 62 211.1 56.9 202.1"/><polygon fill="#fcc69d" points="0 426.13 2.9 431.3 114.72 441.88 168.65 423.2 182.9 435 185.9 448.18 182.15 450.2 177.28 440.75 161.97 437.15 176.38 442.1 181.1 451.1 177.5 455.6 172.55 451.77 161.3 448.63 170.97 453.6 170.3 460.55 167.15 460.55 168.05 465.27 166.47 467.07 151.4 465.27 101.9 467.07 89.3 467.07 -1.82 474.05 0 426.13"/><polygon fill="#682300" points="56.9 202.1 61.4 197.6 54.5 191 43.7 193.4 52.55 189.5 43.7 185.9 38.45 188.9 42.2 183.8 33.5 181.4 28.4 179 19.23 179 0 179 .3 305.75 4.7 309 3.8 289.7 6.8 309 19.23 321.2 12.8 238.4 19.23 203.6 15.2 234.5 30.7 219.8 26.6 221 30.7 215.6 25.4 216.8 45.2 201.5 56.9 202.1"/><polygon fill="#894a1f" points="271 435.35 273.2 441.35 267.05 445.1 271.49 441.37 271 435.35"/><polygon fill="#288e73" points=".49 342.48 11.22 346.93 16.4 342.48 20.9 355.02 16.4 362.9 .23 356.38 .49 342.48"/><polygon fill="#3f1300" points="38.45 185 32.9 190.7 26.9 207.2 30.7 190.7 26.9 192.8 23.9 199.4 25.7 190.1 32.9 182.9 30.7 188.75 38.45 185"/><polygon fill="#3f1300" points="22.7 183.65 15.8 189.8 8.3 232.4 13.7 191 10.85 192.35 7.4 204.8 8.6 191.15 6.8 191.6 5.75 198.8 5 189.95 6.8 185 17 181.55 11.3 185.75 16.63 183.69 12.8 187.25 22.7 183.65"/><polygon fill="#727272" points="231.2 224.9 228.35 219.95 219.8 219.95 210.5 226.85 220.1 221.6 221.9 222.65 215.86 225.95 222.8 223.4 224.75 225.05 222.8 226.85 227.15 225.05 231.2 224.9"/><polygon fill="#727272" points="234.5 221.15 236.15 224.9 240.2 226.1 245.45 231.35 242.45 224.75 239.15 223.4 242.45 223.4 239.97 219.95 233.86 218.15 234.5 221.15"/><polygon fill="#727272" points="201.5 233.15 195.8 235.55 198.65 247.85 198.65 239.45 203.3 234.65 198.2 237.35 201.5 233.15"/><polygon fill="#d3d3d3" points="433 221.75 451.85 222.95 455 226.25 450.2 225.5 452.75 227.75 445.97 230.6 436.5 227 428.75 227 433 221.75"/><polygon fill="#d3d3d3" points="452.9 243.65 445.97 249.05 451.77 259 450 250.5 452.9 254.45 452.9 247.7 455 250.5 452.9 243.65"/><polygon fill="#f98c6e" points="51.29 260.66 59.58 264.85 58.1 268.32 51.29 260.66"/><polygon fill="#fcad9a" points="53.27 261.66 61.84 261.78 59.58 264.85 53.27 261.66"/><polygon fill="#bfaeea" points="529.93 428.87 523.02 431.64 523.1 439.68 555.5 469.89 529.93 428.87"/><polygon fill="#fcc69d" points="457 447 425 441 412 445 401 445 396 449 395 450 392 457 395 467 396 462 396 469 406 473 407 471 404 469 419 474 454 477 472 457 457 447"/><polygon fill="#fcc69d" points="347 368.6 329 369 311 364 292 364 284 378 293 378 300 371 306.35 372.8 324 392 332 392 328 396 336 404 349 393 359 393 356 369 347 368.6"/><polygon fill="#fcc69d" points="273 391 271 395 274 398 280 394 273 391"/><polygon fill="#fcc69d" points="284 396 280 402 282 406 287 406 291 399 289 396 284 396"/><polygon fill="#fcc69d" points="289.86 401 295 401 298 405 297 407 291 413 286 409 286 405 289.86 401"/><polygon fill="#fcc69d" points="297 407 300 410 300 416 293 416 292 409 297 407"/><path fill="#756dce" d="M555.5,294l-10.57,7.76L531,364l-54,16s-20-11-23-13,9,17,9,17H393l-9-6H348.91L352,399h39l83,7,72-18,10.85,85L539,501h61l.8-228.4Z"/><path fill="#bfaeea" d="M393,384h70s-12-19-9-17,23,13,23,13l54-16,13.93-62.24L531,312l-74,42-69,7-3,4H347l1.91,13H384Z"/><polygon fill="#ffe4ae" points="513 190 507 223 513 234 504 246 513 253 517 265 520 268 517 271 520 285 553 288 558 300 600 262 568 179 513 190"/><polygon fill="#ffcc5a" points="513 190 498 172 519 172 548 159 568 150 586 157 600 170 600 259 573 256 568 228 549 219 543 235 546 247 535 241 531 222 522 218 528 195 513 190"/><polygon fill="#bfaeea" points="600 262 556.8 297.13 559 342 600 290 600 262"/><polygon fill="#480051" points="557 297 552 315 558.01 321.78 549 334 549 405 554 417 562 319 557 297"/><polygon fill="#a08bea" points="598 309 565 353 550.69 420.84 527 430 549 460 523 435 457 441 439 468 455 479 532 492 572 500 600 465 600.8 309 598 309"/><polygon fill="#ea9f1b" points="536 195.05 574.85 176.15 593.3 185.6 593.3 219.95 588.35 194.6 546.05 204.5 536 218.15 541.1 204.5 536 207.2 540.2 198.05 536 195.05"/><polygon fill="#fcab75" points="290.23 400.36 286.6 404.38 287.19 405.21 290.23 400.36"/><polygon fill="#fcab75" points="297 407 293.09 410.91 295.04 410.15 297 407"/><polygon fill="#fcab75" points="404 469 401.5 465 404 462.13 406.69 469.89 404 469"/><ellipse cx="218.75" cy="426.15" fill="#bccce0" rx="16.35" ry=".99"/><path fill="#bccce0" d="M232.42,467.06c0,.46-6.12.83-13.67.83s-13.67-.37-13.67-.83,6.12-.82,13.67-.82S232.42,466.61,232.42,467.06Z"/><path fill="#8ea3f9" d="M232.42,467.06v1.87c0,.46-6.12.83-13.67.83s-13.67-.37-13.67-.83v-1.87c0,.46,6.12.83,13.67.83S232.42,467.52,232.42,467.06Z"/><path fill="#bccce0" d="M235.1,426.15l-2.68,40.91c0-.45-6.12-.82-13.67-.82s-13.67.37-13.67.82l-2.68-40.91c0,.54,7.32,1,16.35,1S235.1,426.69,235.1,426.15Z"/><path fill="#8ea3f9" d="M205.12,440.3l1.12,25.44c0,.57.78,1,1.77,1.12l2.15.16a113.38,113.38,0,0,0,17.19.05l2.46-.17c1-.07,1.76-.55,1.78-1.12l1-25.62c0-.58-.72-1.09-1.73-1.17a140.62,140.62,0,0,0-24.11.15C205.81,439.23,205.1,439.73,205.12,440.3Z"/><line x1="230.6" x2="230.07" y1="429.12" y2="441.35" fill="none" stroke="#fff" stroke-linecap="round" stroke-miterlimit="10" stroke-width="1.51"/><line x1="230.04" x2="230.01" y1="443.94" y2="444.5" fill="none" stroke="#fff" stroke-linecap="round" stroke-miterlimit="10" stroke-width="1.51"/><ellipse cx="224.3" cy="458.21" fill="#fff" rx=".45" ry=".25"/><ellipse cx="224.75" cy="456.13" fill="#fff" rx=".45" ry=".25"/><ellipse cx="222.54" cy="455.54" fill="#fff" rx=".45" ry=".25"/><ellipse cx="225.01" cy="454.12" fill="#fff" rx=".45" ry=".25"/><ellipse cx="223.69" cy="452.61" fill="#fff" rx=".29" ry=".16"/><ellipse cx="226.2" cy="450.78" fill="#fff" rx=".29" ry=".16"/><ellipse cx="224.28" cy="450.46" fill="#fff" rx=".29" ry=".16"/><ellipse cx="226.34" cy="448.7" fill="#fff" rx=".14" ry=".08"/><polygon fill="#894a1f" points="120.2 254.6 125.9 277 150.95 297 146.9 300.23 123.2 277.42 120.2 254.6"/><polygon fill="#fcc69d" points="543.7 287.15 563.9 266 569.3 246.5 568.1 266 553 288 543.7 287.15"/><polygon fill="#f7cf89" points="546.05 231.95 551 222.95 562 229.47 564.5 240.72 554.15 255.8 562 239.5 558.42 231.5 552 227 546.05 231.95"/><polygon fill="#f7cf89" points="548.08 236.9 555.27 239.38 555.27 243.65 552 246.5 548.08 236.9"/><polygon fill="#894a1f" points="116.9 254.6 110.9 248 113.9 234.5 121.4 236.3 122.9 240.2 122.9 234.5 116.9 230.9 110.9 234.8 108.2 250.1 116.9 254.6"/><polygon fill="#894a1f" points="170.75 246.95 173 260.75 170.75 261.7 165.35 258.35 161 257.75 170.75 246.95"/><polygon fill="#fcab75" points="59.49 230.9 54.5 239.3 58.7 246.95 57.65 250.5 61.4 246.95 66.2 246.95 59.49 230.9"/><polygon fill="#fcc69d" points="230.15 256.14 233.86 267.5 231.39 269.07 228.77 268.63 225.8 272.11 230.15 256.14"/><polygon fill="#ffb56c" points="420.05 261.5 414.5 272.6 414.5 275 421.4 276.2 421.4 273.95 419.9 272.6 420.05 261.5"/></g><path fill="#fff" d="M562.06 119.17l-1.33-2.82a2.7 2.7 0 00-2.44-1.55H493.1a2.7 2.7 0 01-2.7-2.7v-81a2.7 2.7 0 012.7-2.7h71.4a2.7 2.7 0 012.7 2.7V118A2.7 2.7 0 01562.06 119.17zM72.24 176.1l1.33-2.82A2.7 2.7 0 0176 171.73H141.2a2.7 2.7 0 002.7-2.7V88a2.7 2.7 0 00-2.7-2.7H69.8A2.7 2.7 0 0067.1 88V175A2.7 2.7 0 0072.24 176.1z"/><path fill="#fff" d="M517.31,62.36a17.92,17.92,0,0,0-4.57,14.12L500.18,77.9A30.58,30.58,0,0,1,508,53.85Z"/><path fill="#304196" d="M558.44,76.56a30.64,30.64,0,0,1-60,8.77l12.11-3.62A18,18,0,1,0,527.8,58.56V45.93A30.63,30.63,0,0,1,558.44,76.56Z"/><path fill="#4154c9" d="M559.44,74.56a30.64,30.64,0,0,1-60,8.77l12.11-3.62A18,18,0,1,0,528.8,56.56V43.93A30.63,30.63,0,0,1,559.44,74.56Z"/><polygon fill="#304196" points="499.44 83.33 498.44 85.33 499.95 84.88 499.44 83.33"/><line x1="498.21" x2="492.8" y1="72.81" y2="72.5" fill="none"/><path fill="#b2b2b2" d="M513.74,63.36a17.92,17.92,0,0,0-4.57,14.12L496.61,78.9a30.58,30.58,0,0,1,7.78-24.05Z"/><path fill="#ededed" d="M511.74,61.36a17.92,17.92,0,0,0-4.57,14.12L494.61,76.9a30.58,30.58,0,0,1,7.78-24.05Z"/><polygon fill="#b2b2b2" points="494.61 76.9 496.61 78.9 497.43 76.58 494.61 76.9"/><path fill="#a8386b" d="M525.84,42.79V55.42a17.91,17.91,0,0,0-11.08,3.82l-7.78-10A30.53,30.53,0,0,1,525.84,42.79Z"/><path fill="#ed4a8c" d="M525.84,40.79V53.42a17.91,17.91,0,0,0-11.08,3.82l-7.78-10A30.53,30.53,0,0,1,525.84,40.79Z"/><polygon fill="#a8386b" points="506.98 47.28 506.98 49.28 508.34 49.02 506.98 47.28"/><polygon fill="#304196" points="528.8 43.93 527.8 45.93 528.8 46.13 528.8 43.93"/><rect width="9.55" height="43.65" x="83.25" y="112.25" fill="#4154c9"/><rect width="9.55" height="16.2" x="118.35" y="139.7" fill="#4154c9"/><rect width="9.75" height="26.55" x="99.4" y="129.35" fill="#ed4a8c"/><polyline fill="none" stroke="#424242" stroke-miterlimit="10" points="76.25 98.3 76.25 155.9 136.1 155.9"/></g></svg>