<svg viewBox="0 0 512 600"  version="1.1" xmlns="http://www.w3.org/2000/svg" xmlns:xlink="http://www.w3.org/1999/xlink" fill="#000000"><g id="SVGRepo_bgCarrier" stroke-width="0"></g><g id="SVGRepo_tracerCarrier" stroke-linecap="round" stroke-linejoin="round"></g><g id="SVGRepo_iconCarrier"> <title>info-feed</title> <g id="Page-1" stroke="none" stroke-width="1" fill="none" fill-rule="evenodd"> <g id="drop" fill="#888686" transform="translate(64.000000, 85.333333)"> <path d="M128.021333,42.688 L384.042667,42.688 L384.042667,0.0213333333 L128.021333,0.0213333333 L128.021333,42.688 Z M0.0426666667,85.3546667 L85.376,85.3546667 L85.376,1.42108547e-14 L0.0426666667,1.42108547e-14 L0.0426666667,85.3546667 Z M128.021333,128.021333 L384.042667,128.021333 L384.042667,85.3546667 L128.021333,85.3546667 L128.021333,128.021333 Z M298.688,298.688 L384.042667,298.688 L384.042667,213.333333 L298.688,213.333333 L298.688,298.688 Z M-1.42108547e-14,256.021333 L256,256.021333 L256,213.333333 L-1.42108547e-14,213.333333 L-1.42108547e-14,256.021333 Z M0.0426666667,341.354667 L256.042667,341.354667 L256.042667,298.688 L0.0426666667,298.688 L0.0426666667,341.354667 Z" id="Combined-Shape"> </path> </g> </g> </g></svg>