<svg id="elNjOqkpnf81" xmlns="http://www.w3.org/2000/svg" xmlns:xlink="http://www.w3.org/1999/xlink" viewBox="0 0 14 14" shape-rendering="geometricPrecision" text-rendering="geometricPrecision"><path id="elNjOqkpnf82" d="M1,6.85L2.92,8.77L5.8,5.89l-.66-.66L2.92,7.42L1.66,6.19Zm0-3.9L2.92,4.87L5.8,1.99l-.66-.66L2.92,3.52L1.66,2.29Zm0,7.8l1.92,1.92L5.8,9.79l-.66-.66-2.22,2.19-1.26-1.23Z" transform="translate(-6.6 0)" fill="#f00"/><path id="elNjOqkpnf83" d="M7,6.4h5.707583v1.2L7,7.6ZM7,2.5h5.707583v1.2L7,3.7Zm0,7.8h5.707583v1.2L7,11.5Z" transform="matrix(0 0 0 1 10 0)"/>
<script>></script>
</svg>
